<?xml version="1.0" standalone="no"?>
<!DOCTYPE svg PUBLIC "-//W3C//DTD SVG 20010904//EN"
 "http://www.w3.org/TR/2001/REC-SVG-20010904/DTD/svg10.dtd">
<svg version="1.0" xmlns="http://www.w3.org/2000/svg"
 width="2082.000000pt" height="2082.000000pt" viewBox="0 0 2082.000000 2082.000000"
 preserveAspectRatio="xMidYMid meet">
<metadata>
Created by potrace 1.11, written by Peter Selinger 2001-2013
</metadata>
<g transform="translate(0.000000,2082.000000) scale(0.100000,-0.100000)"
fill="#000000" stroke="none">
<path d="M10270 18737 c-502 -365 -2322 -1687 -2852 -2071 -153 -111 -276
-204 -275 -208 1 -4 106 -151 233 -325 127 -175 532 -732 899 -1238 797 -1097
1257 -1730 1940 -2670 280 -385 662 -911 850 -1170 874 -1203 1457 -2005 1657
-2280 120 -165 623 -858 1118 -1539 495 -681 900 -1235 900 -1230 0 5 -18 63
-39 129 -35 104 -422 1297 -1106 3405 -192 591 -292 899 -943 2905 -366 1126
-528 1625 -1197 3685 -169 520 -364 1123 -435 1340 -71 217 -206 635 -301 928
-95 292 -175 532 -179 532 -3 0 -124 -87 -270 -193z"/>
<path d="M11795 17178 c14 -44 276 -850 610 -1878 326 -1005 443 -1365 575
-1770 71 -217 188 -577 260 -800 72 -223 158 -486 190 -585 32 -99 266 -819
520 -1600 254 -781 488 -1501 520 -1600 32 -99 235 -722 450 -1385 215 -663
476 -1466 580 -1785 104 -319 253 -778 331 -1020 78 -242 145 -443 148 -447 3
-4 -13 241 -36 545 -24 304 -112 1463 -198 2577 -339 4417 -397 5185 -475
6215 -45 589 -83 1079 -85 1090 -3 12 -85 79 -217 174 -364 265 -1022 742
-1523 1106 -264 192 -718 522 -1010 733 -291 212 -552 401 -580 421 -77 57
-76 57 -60 9z"/>
<path d="M15725 13963 c3 -27 35 -428 70 -893 35 -465 139 -1815 230 -3000
178 -2323 286 -3733 416 -5437 46 -595 84 -1081 85 -1080 2 2 353 1080 769
2362 135 418 273 841 305 940 83 253 768 2365 1140 3510 171 528 327 1007 346
1065 18 58 34 108 34 112 0 4 -568 420 -1262 924 -695 505 -1456 1059 -1693
1231 -236 172 -434 313 -438 313 -4 0 -5 -21 -2 -47z"/>
<path d="M8970 13207 c0 -3 38 -122 84 -264 96 -292 198 -607 661 -2033 179
-553 386 -1189 460 -1415 73 -225 246 -756 384 -1180 137 -423 370 -1139 516
-1590 147 -451 322 -991 390 -1200 68 -209 297 -915 510 -1570 213 -655 390
-1193 394 -1198 4 -4 951 -6 2105 -5 l2098 3 -193 265 c-106 146 -274 378
-374 515 -99 138 -307 423 -461 635 -154 212 -502 691 -774 1065 -272 374
-863 1189 -1315 1810 -452 622 -941 1294 -1086 1495 -146 201 -530 730 -854
1175 -909 1251 -1690 2326 -2128 2930 -406 559 -417 574 -417 562z"/>
<path d="M8357 12527 c-47 -144 -253 -777 -457 -1407 -204 -630 -427 -1316
-495 -1525 -395 -1215 -825 -2540 -966 -2975 l-92 -284 46 -141 c25 -77 132
-405 237 -730 203 -626 351 -1083 560 -1725 71 -217 183 -564 250 -770 67
-206 140 -431 163 -500 l41 -125 13 150 c7 83 101 1298 208 2700 224 2928 345
4499 484 6310 54 704 97 1281 96 1282 -1 2 -40 -115 -88 -260z"/>
<path d="M6454 11312 c-633 -461 -1394 -1014 -1692 -1230 -298 -217 -544 -397
-546 -401 -3 -4 23 -95 59 -202 90 -274 271 -833 885 -2726 190 -584 348
-1058 352 -1055 3 4 117 347 251 762 135 415 387 1192 561 1725 735 2265 833
2568 1011 3115 103 316 206 636 230 710 25 74 43 135 42 136 -1 1 -520 -374
-1153 -834z"/>
<path d="M9011 10952 c-12 -163 -49 -646 -81 -1072 -70 -911 -119 -1553 -275
-3595 -63 -830 -131 -1712 -150 -1960 -19 -247 -69 -898 -110 -1445 -42 -547
-95 -1242 -118 -1543 -23 -302 -40 -550 -38 -553 2 -2 949 -4 2103 -4 l2099 0
-7 23 c-8 27 -227 704 -401 1237 -68 212 -215 662 -325 1000 -110 338 -255
786 -323 995 -156 481 -274 843 -905 2785 -281 866 -542 1670 -580 1785 -37
116 -123 379 -190 585 -67 206 -152 470 -190 585 -38 116 -130 399 -205 630
-204 628 -273 836 -277 840 -2 3 -14 -129 -27 -293z"/>
</g>
</svg>
