<?xml version="1.0" standalone="no"?>
<!DOCTYPE svg PUBLIC "-//W3C//DTD SVG 20010904//EN"
 "http://www.w3.org/TR/2001/REC-SVG-20010904/DTD/svg10.dtd">
<svg version="1.0" xmlns="http://www.w3.org/2000/svg"
 width="267.000000pt" height="267.000000pt" viewBox="0 0 267.000000 267.000000"
 preserveAspectRatio="xMidYMid meet">
<metadata>
Created by potrace 1.11, written by Peter Selinger 2001-2013
</metadata>
<g transform="translate(0.000000,267.000000) scale(0.100000,-0.100000)"
fill="#000000" stroke="none">
<path d="M103 2463 c2 -5 41 -72 86 -150 l81 -142 0 -86 0 -85 60 0 60 0 0 86
0 87 64 111 c35 61 74 128 86 149 l22 37 -71 0 -71 0 -42 -75 c-24 -41 -45
-75 -49 -75 -3 0 -24 34 -48 75 l-42 75 -70 0 c-39 0 -68 -3 -66 -7z"/>
<path d="M817 2456 c-130 -48 -192 -193 -136 -316 42 -94 107 -134 215 -135
61 0 77 4 120 30 58 36 101 101 110 166 13 95 -42 201 -128 245 -43 22 -134
28 -181 10z m158 -146 c85 -86 -14 -224 -128 -177 -20 9 -42 28 -51 46 -62
119 83 226 179 131z"/>
<path d="M140 1645 l0 -235 60 0 60 0 0 69 c0 50 4 72 16 81 13 12 27 2 97
-68 l82 -82 90 0 90 0 -128 128 -127 127 107 108 108 107 -90 0 -90 0 -77 -77
-78 -78 0 78 0 77 -60 0 -60 0 0 -235z"/>
<path d="M817 1866 c-130 -48 -192 -193 -136 -316 42 -94 107 -134 215 -135
61 0 77 4 120 30 58 36 101 101 110 166 13 95 -42 201 -128 245 -43 22 -134
28 -181 10z m158 -146 c85 -86 -14 -224 -128 -177 -20 9 -42 28 -51 46 -62
119 83 226 179 131z"/>
<path d="M140 1065 l0 -235 60 0 60 0 0 90 0 90 75 0 75 0 0 -90 0 -90 60 0
60 0 0 235 0 235 -60 0 -60 0 0 -85 0 -85 -75 0 -75 0 0 85 0 85 -60 0 -60 0
0 -235z"/>
<path d="M760 1074 c-58 -125 -106 -231 -108 -235 -2 -5 24 -9 58 -9 59 0 62
1 73 30 l11 30 98 0 97 0 16 -30 c15 -28 19 -30 75 -30 l59 0 -24 53 c-13 28
-61 133 -108 232 -79 168 -86 180 -113 183 -29 3 -30 0 -134 -224z m160 -30
c11 -26 20 -48 20 -50 0 -2 -20 -4 -45 -4 -25 0 -45 5 -45 10 0 13 39 90 45
90 2 0 13 -21 25 -46z"/>
<path d="M140 485 l0 -235 60 0 60 0 0 121 0 121 61 -56 61 -57 64 56 64 57 0
-121 0 -121 60 0 60 0 0 235 0 235 -28 0 c-20 0 -50 -21 -120 -85 -51 -47 -95
-85 -98 -85 -3 0 -48 38 -99 85 -67 62 -100 85 -119 85 l-26 0 0 -235z"/>
<path d="M770 494 c-58 -125 -106 -231 -108 -235 -2 -5 24 -9 58 -9 59 0 62 1
73 30 l11 30 98 0 97 0 16 -30 c15 -28 19 -30 75 -30 l59 0 -24 52 c-13 29
-61 134 -108 233 -79 168 -86 180 -113 183 -29 3 -30 0 -134 -224z m160 -30
c11 -26 20 -48 20 -50 0 -2 -20 -4 -45 -4 -25 0 -45 5 -45 10 0 13 39 90 45
90 2 0 13 -21 25 -46z"/>
</g>
</svg>
